<svg xmlns="http://www.w3.org/2000/svg" xmlns:xlink="http://www.w3.org/1999/xlink" width="160" height="160" viewBox="0 0 160 160"><defs><linearGradient id="a" x1="0.5" x2="0.5" y2="1" gradientUnits="objectBoundingBox"><stop offset="0" stop-color="#50bebe"/><stop offset="0.5" stop-color="#099"/><stop offset="1" stop-color="#0099cb"/><stop offset="1" stop-color="gray"/></linearGradient></defs><rect width="160" height="160" fill="none"/><g transform="translate(-5 -30)"><g transform="translate(-903 -2350)"><path d="M393.546,463.586c10.38,0,20.1-1.043,27.363-2.931a29.424,29.424,0,0,0,7.488-2.819V436.846a42.543,42.543,0,0,1-6.229,2.092c-7.665,2-17.829,3.095-28.622,3.095s-20.963-1.1-28.628-3.095a44.8,44.8,0,0,1-5.725-1.875v21.055a31.71,31.71,0,0,0,6.984,2.537c7.265,1.889,16.989,2.931,27.369,2.931m-23.317-16.76a3.682,3.682,0,1,1-3.685,3.679,3.677,3.677,0,0,1,3.685-3.679" transform="translate(576.807 1980.049)" fill="#005f87"/><path d="M393.546,463.586c10.38,0,20.1-1.043,27.363-2.931a29.424,29.424,0,0,0,7.488-2.819V436.846a42.543,42.543,0,0,1-6.229,2.092c-7.665,2-17.829,3.095-28.622,3.095s-20.963-1.1-28.628-3.095a44.8,44.8,0,0,1-5.725-1.875v21.055a31.71,31.71,0,0,0,6.984,2.537c7.265,1.889,16.989,2.931,27.369,2.931m-23.317-16.76a3.682,3.682,0,1,1-3.685,3.679,3.677,3.677,0,0,1,3.685-3.679" transform="translate(576.807 2005.049)" fill="#005f87"/><path d="M393.546,463.586c10.38,0,20.1-1.043,27.363-2.931a29.424,29.424,0,0,0,7.488-2.819V436.846a42.543,42.543,0,0,1-6.229,2.092c-7.665,2-17.829,3.095-28.622,3.095s-20.963-1.1-28.628-3.095a44.8,44.8,0,0,1-5.725-1.875v21.055a31.71,31.71,0,0,0,6.984,2.537c7.265,1.889,16.989,2.931,27.369,2.931m-23.317-16.76a3.682,3.682,0,1,1-3.685,3.679,3.677,3.677,0,0,1,3.685-3.679" transform="translate(576.807 2030.049)" fill="#005f87"/><path d="M366.176,434.511a32.257,32.257,0,0,1-6.984-2.531v-3.128c.151-.453,3.993-2.308,6.787-3.036,7.265-1.888,17.186-2.866,27.566-2.866s20.1,1.043,27.363,2.931a28.567,28.567,0,0,1,7.488,2.97V432c-1.377.813-3.711,1.528-7.488,2.511-7.265,1.9-16.983,2.938-27.363,2.938s-20.1-1.042-27.369-2.938" transform="translate(576.807 1981.049)" fill="#005f87"/></g><g transform="translate(-868 -2327)"><path d="M7104.983,3091.7a31.8,31.8,0,0,1-6.983-2.536v-21.056a44.608,44.608,0,0,0,5.724,1.876c7.666,2,17.829,3.094,28.628,3.094s20.957-1.1,28.624-3.094a42.594,42.594,0,0,0,6.229-2.092v20.99a29.459,29.459,0,0,1-7.488,2.819c-7.267,1.889-16.983,2.932-27.364,2.932S7112.249,3093.592,7104.983,3091.7Zm.367-10.15a3.682,3.682,0,1,0,3.686-3.678A3.685,3.685,0,0,0,7105.35,3081.553Zm-.367-14.85a31.7,31.7,0,0,1-6.983-2.536v-21.056a44.572,44.572,0,0,0,5.724,1.876c7.666,2,17.829,3.1,28.628,3.1s20.957-1.1,28.624-3.1a42.6,42.6,0,0,0,6.229-2.092v20.989a29.374,29.374,0,0,1-7.488,2.819c-7.267,1.889-16.983,2.932-27.364,2.932S7112.249,3068.591,7104.983,3066.7Zm.367-10.15a3.682,3.682,0,1,0,3.686-3.678A3.685,3.685,0,0,0,7105.35,3056.552Zm-.367-14.849a31.681,31.681,0,0,1-6.983-2.538v-21.054a44.892,44.892,0,0,0,5.724,1.874c7.666,2,17.829,3.1,28.628,3.1s20.957-1.1,28.624-3.1a42.594,42.594,0,0,0,6.229-2.092v20.99a29.435,29.435,0,0,1-7.488,2.82c-7.267,1.889-16.983,2.932-27.364,2.932S7112.249,3043.593,7104.983,3041.7Zm.367-10.15a3.682,3.682,0,1,0,3.686-3.678A3.684,3.684,0,0,0,7105.35,3031.554Zm-.367-14.994a32.145,32.145,0,0,1-6.983-2.531V3010.9c.151-.453,3.993-2.31,6.787-3.036,7.265-1.889,17.185-2.865,27.565-2.865s20.1,1.042,27.364,2.93a28.614,28.614,0,0,1,7.488,2.972v3.146c-1.378.813-3.713,1.529-7.488,2.511-7.267,1.9-16.983,2.939-27.364,2.939S7112.249,3018.455,7104.983,3016.56Z" transform="translate(-6162 -601)" stroke="#67ffff" stroke-width="2" fill="url(#a)"/></g></g></svg>